<?xml version="1.0" encoding="UTF-8" standalone="no"?>
<svg
   xmlns:dc="http://purl.org/dc/elements/1.1/"
   xmlns:cc="http://creativecommons.org/ns#"
   xmlns:rdf="http://www.w3.org/1999/02/22-rdf-syntax-ns#"
   xmlns:svg="http://www.w3.org/2000/svg"
   xmlns="http://www.w3.org/2000/svg"
   xmlns:sodipodi="http://sodipodi.sourceforge.net/DTD/sodipodi-0.dtd"
   xmlns:inkscape="http://www.inkscape.org/namespaces/inkscape"
   sodipodi:docname="Pichincha mi vecino.svg"
   inkscape:version="1.0 (4035a4f, 2020-05-01)"
   id="svg2364"
   version="1.1"
   viewBox="0 0 158.74999 158.75"
   height="600"
   width="600">
  <defs
     id="defs2358" />
  <sodipodi:namedview
     inkscape:window-maximized="1"
     inkscape:window-y="23"
     inkscape:window-x="0"
     inkscape:window-height="1035"
     inkscape:window-width="1920"
     inkscape:showpageshadow="false"
     borderlayer="false"
     units="px"
     showgrid="false"
     inkscape:document-rotation="0"
     inkscape:current-layer="layer1"
     inkscape:document-units="px"
     inkscape:cy="342.30907"
     inkscape:cx="293.45527"
     inkscape:zoom="0.34485339"
     inkscape:pageshadow="2"
     inkscape:pageopacity="0"
     borderopacity="1.0"
     bordercolor="#666666"
     pagecolor="#cccccc"
     id="base"
     inkscape:snap-global="false"
     inkscape:object-paths="true"
     inkscape:snap-intersection-paths="true"
     inkscape:snap-bbox="true"
     inkscape:bbox-paths="true"
     inkscape:bbox-nodes="true"
     inkscape:snap-bbox-edge-midpoints="true"
     inkscape:snap-bbox-midpoints="true"
     inkscape:snap-smooth-nodes="true"
     showborder="false" />
  <metadata
     id="metadata2361">
    <rdf:RDF>
      <cc:Work
         rdf:about="">
        <dc:format>image/svg+xml</dc:format>
        <dc:type
           rdf:resource="http://purl.org/dc/dcmitype/StillImage" />
        <dc:title></dc:title>
      </cc:Work>
    </rdf:RDF>
  </metadata>
  <g
     id="layer1"
     inkscape:groupmode="layer"
     inkscape:label="Layer 1">
    <path
       id="rect578"
       style="fill:#ffffff;fill-opacity:1;stroke:none;stroke-width:0.340479;font-variation-settings:normal;opacity:1;vector-effect:none;stroke-linecap:butt;stroke-linejoin:miter;stroke-miterlimit:4;stroke-dasharray:none;stroke-dashoffset:0;stroke-opacity:1;stop-color:#000000;stop-opacity:1"
       d="M 23.812498,-2e-7 H 134.93751 c 13.19212,0 23.8125,10.6203742 23.8125,23.8124952 V 134.9375 c 0,13.19212 -10.62038,23.8125 -23.8125,23.8125 H 23.812498 C 10.620375,158.75 10e-7,148.12962 10e-7,134.9375 V 23.812495 C 10e-7,10.620374 10.620375,-2e-7 23.812498,-2e-7 Z" />
    <path
       transform="scale(0.26458332)"
       d="M 90 0 C 40.140006 -9.4739031e-15 1.3926359e-16 40.140014 0 90 L 0 378.24023 C 0 499.68062 98.559874 600 221.75977 600 L 510 600 C 559.85998 600 600 559.85998 600 510 L 600 90 C 600 40.140014 559.85998 1.3926359e-16 510 0 L 90 0 z "
       style="fill:#ffdd00;stroke-width:0.999999"
       id="path40" />
    <polygon
       id="polygon42"
       points="25.6,19 25.6,12.1 18.8,12.1 18.8,6.5 31.3,6.5 31.3,19 "
       class="st6"
       style="fill:#0f265c;stroke-width:0.0624998"
       transform="matrix(4.2333361,0,0,4.2333361,1.95612e-5,-0.84670262)" />
    <g
       id="g551"
       transform="translate(-53.43629,25.305771)" />
  </g>
</svg>
